<?xml version="1.0" standalone="no"?>
<!DOCTYPE svg PUBLIC "-//W3C//DTD SVG 20010904//EN"
 "http://www.w3.org/TR/2001/REC-SVG-20010904/DTD/svg10.dtd">
<svg version="1.0" xmlns="http://www.w3.org/2000/svg"
 width="200.000000pt" height="200.000000pt" viewBox="0 0 200.000000 200.000000"
 preserveAspectRatio="xMidYMid meet">
<metadata>
Created by potrace 1.11, written by Peter Selinger 2001-2013
</metadata>
<g transform="translate(0.000000,200.000000) scale(0.100000,-0.100000)"
fill="#000000" stroke="none">
<path d="M1304 1952 c-17 -12 -94 -110 -93 -118 0 -5 19 -24 42 -43 23 -18 69
-56 101 -85 32 -28 66 -56 75 -63 30 -21 3 -25 -41 -5 -66 31 -129 45 -141 33
-14 -14 8 -45 77 -111 57 -55 67 -70 42 -70 -22 0 -26 -27 -7 -45 17 -15 20
-15 35 0 9 9 16 21 16 26 0 5 33 -15 73 -45 96 -72 112 -79 126 -62 9 11 5 27
-20 72 -17 33 -40 70 -50 83 -43 54 11 26 93 -50 18 -16 58 -50 89 -74 l57
-45 25 33 c13 17 37 45 52 61 l27 29 -29 26 c-15 14 -70 61 -121 105 l-93 78
-24 -22 -24 -23 -10 26 c-6 15 -21 29 -36 33 -28 7 -33 22 -10 30 27 11 16 32
-42 81 -32 26 -60 50 -63 53 -38 38 -119 97 -126 92z"/>
<path d="M1290 1482 c0 -30 32 -71 71 -90 23 -12 47 -18 52 -15 5 3 -4 11 -20
18 -33 14 -74 50 -91 80 -6 11 -12 14 -12 7z"/>
<path d="M695 1454 c-193 -43 -356 -156 -460 -319 -76 -118 -106 -222 -106
-370 -1 -146 29 -268 83 -347 10 -14 18 -29 18 -33 0 -11 86 -118 122 -151
206 -190 526 -243 778 -128 57 26 132 73 138 87 2 4 8 7 12 7 25 0 135 126
184 211 21 37 68 157 75 192 0 4 1 8 2 10 3 11 7 76 8 142 2 77 -2 112 -16
165 -3 14 -7 27 -8 30 -10 45 -41 122 -51 131 -8 6 -14 16 -14 21 0 19 -66
105 -125 163 -168 164 -420 238 -640 189z"/>
<path d="M1260 1460 c0 -30 40 -80 79 -100 63 -31 82 -23 24 10 -29 17 -64 47
-78 67 -14 21 -25 31 -25 23z"/>
<path d="M1224 1447 c3 -10 6 -24 6 -31 0 -25 81 -94 126 -106 60 -17 65 -7 9
20 -42 20 -75 49 -126 110 -15 18 -19 20 -15 7z"/>
</g>
</svg>
